<svg width="1440" height="1164" viewBox="0 0 1440 1164" fill="none" xmlns="http://www.w3.org/2000/svg">
<rect width="1440" height="1164" fill="white"/>
<g clip-path="url(#clip0_2454_15771)">
<rect width="1440" height="932" transform="translate(0 116)" fill="#2A3342"/>
<g opacity="0.4">
<rect width="1440" height="1368" transform="translate(0 116)" fill="#2A3342"/>
<line x1="1464" y1="788.5" x2="-24" y2="788.5" stroke="#333F51"/>
<line x1="1464" y1="812.5" x2="-24" y2="812.5" stroke="#333F51"/>
<line x1="1464" y1="836.5" x2="-24" y2="836.5" stroke="#333F51"/>
<line x1="1464" y1="860.5" x2="-24" y2="860.5" stroke="#333F51"/>
<line x1="1464" y1="884.5" x2="-24" y2="884.5" stroke="#333F51"/>
<line x1="1464" y1="908.5" x2="-24" y2="908.5" stroke="#333F51"/>
<line x1="1464" y1="932.5" x2="-24" y2="932.5" stroke="#333F51"/>
<line x1="1464" y1="956.5" x2="-24" y2="956.5" stroke="#333F51"/>
<line x1="1464" y1="980.5" x2="-24" y2="980.5" stroke="#333F51"/>
<line x1="1464" y1="1004.5" x2="-24" y2="1004.5" stroke="#333F51"/>
<line x1="1464" y1="1028.5" x2="-24" y2="1028.5" stroke="#333F51"/>
<line x1="24.5" y1="764" x2="24.5" y2="1484" stroke="#333F51"/>
<line x1="24.5" y1="764" x2="24.5" y2="1484" stroke="#333F51"/>
<line x1="48.5" y1="764" x2="48.5" y2="1484" stroke="#333F51"/>
<line x1="72.5" y1="764" x2="72.5" y2="1484" stroke="#333F51"/>
<line x1="96.5" y1="764" x2="96.5" y2="1484" stroke="#333F51"/>
<line x1="120.5" y1="764" x2="120.5" y2="1484" stroke="#333F51"/>
<line x1="144.5" y1="764" x2="144.5" y2="1484" stroke="#333F51"/>
<line x1="168.5" y1="764" x2="168.5" y2="1484" stroke="#333F51"/>
<line x1="192.5" y1="764" x2="192.5" y2="1484" stroke="#333F51"/>
<line x1="216.5" y1="764" x2="216.5" y2="1484" stroke="#333F51"/>
<line x1="240.5" y1="764" x2="240.5" y2="1484" stroke="#333F51"/>
<line x1="264.5" y1="764" x2="264.5" y2="1484" stroke="#333F51"/>
<line x1="288.5" y1="764" x2="288.5" y2="1484" stroke="#333F51"/>
<line x1="312.5" y1="764" x2="312.5" y2="1484" stroke="#333F51"/>
<line x1="336.5" y1="764" x2="336.5" y2="1484" stroke="#333F51"/>
<line x1="360.5" y1="764" x2="360.5" y2="1484" stroke="#333F51"/>
<line x1="384.5" y1="764" x2="384.5" y2="1484" stroke="#333F51"/>
<line x1="408.5" y1="764" x2="408.5" y2="1484" stroke="#333F51"/>
<line x1="432.5" y1="764" x2="432.5" y2="1484" stroke="#333F51"/>
<line x1="456.5" y1="764" x2="456.5" y2="1484" stroke="#333F51"/>
<line x1="480.5" y1="764" x2="480.5" y2="1484" stroke="#333F51"/>
<line x1="504.5" y1="764" x2="504.5" y2="1484" stroke="#333F51"/>
<line x1="528.5" y1="764" x2="528.5" y2="1484" stroke="#333F51"/>
<line x1="552.5" y1="764" x2="552.5" y2="1484" stroke="#333F51"/>
<line x1="576.5" y1="764" x2="576.5" y2="1484" stroke="#333F51"/>
<line x1="600.5" y1="764" x2="600.5" y2="1484" stroke="#333F51"/>
<line x1="624.5" y1="764" x2="624.5" y2="1484" stroke="#333F51"/>
<line x1="648.5" y1="764" x2="648.5" y2="1484" stroke="#333F51"/>
<line x1="672.5" y1="764" x2="672.5" y2="1484" stroke="#333F51"/>
<line x1="696.5" y1="764" x2="696.5" y2="1484" stroke="#333F51"/>
<line x1="720.5" y1="764" x2="720.5" y2="1484" stroke="#333F51"/>
<line x1="744.5" y1="764" x2="744.5" y2="1484" stroke="#333F51"/>
<line x1="768.5" y1="764" x2="768.5" y2="1484" stroke="#333F51"/>
<line x1="792.5" y1="764" x2="792.5" y2="1484" stroke="#333F51"/>
<line x1="816.5" y1="764" x2="816.5" y2="1484" stroke="#333F51"/>
<line x1="840.5" y1="764" x2="840.5" y2="1484" stroke="#333F51"/>
<line x1="864.5" y1="764" x2="864.5" y2="1484" stroke="#333F51"/>
<line x1="888.5" y1="764" x2="888.5" y2="1484" stroke="#333F51"/>
<line x1="912.5" y1="764" x2="912.5" y2="1484" stroke="#333F51"/>
<line x1="936.5" y1="764" x2="936.5" y2="1484" stroke="#333F51"/>
<line x1="960.5" y1="764" x2="960.5" y2="1484" stroke="#333F51"/>
<line x1="984.5" y1="764" x2="984.5" y2="1484" stroke="#333F51"/>
<line x1="1008.5" y1="764" x2="1008.5" y2="1484" stroke="#333F51"/>
<line x1="1032.5" y1="764" x2="1032.5" y2="1484" stroke="#333F51"/>
<line x1="1056.5" y1="764" x2="1056.5" y2="1484" stroke="#333F51"/>
<line x1="1080.5" y1="764" x2="1080.5" y2="1484" stroke="#333F51"/>
<line x1="1104.5" y1="764" x2="1104.5" y2="1484" stroke="#333F51"/>
<line x1="1128.5" y1="764" x2="1128.5" y2="1484" stroke="#333F51"/>
<line x1="1152.5" y1="764" x2="1152.5" y2="1484" stroke="#333F51"/>
<line x1="1176.5" y1="764" x2="1176.5" y2="1484" stroke="#333F51"/>
<line x1="1200.5" y1="764" x2="1200.5" y2="1484" stroke="#333F51"/>
<line x1="1224.5" y1="764" x2="1224.5" y2="1484" stroke="#333F51"/>
<line x1="1248.5" y1="764" x2="1248.5" y2="1484" stroke="#333F51"/>
<line x1="1272.5" y1="764" x2="1272.5" y2="1484" stroke="#333F51"/>
<line x1="1296.5" y1="764" x2="1296.5" y2="1484" stroke="#333F51"/>
<line x1="1320.5" y1="764" x2="1320.5" y2="1484" stroke="#333F51"/>
<line x1="1344.5" y1="764" x2="1344.5" y2="1484" stroke="#333F51"/>
<line x1="1368.5" y1="764" x2="1368.5" y2="1484" stroke="#333F51"/>
<line x1="1392.5" y1="764" x2="1392.5" y2="1484" stroke="#333F51"/>
<line x1="1416.5" y1="764" x2="1416.5" y2="1484" stroke="#333F51"/>
<line x1="0.5" y1="68" x2="0.499969" y2="788" stroke="#333F51"/>
<line x1="1464" y1="116.5" x2="-24" y2="116.5" stroke="#333F51"/>
<line x1="1464" y1="140.5" x2="-24" y2="140.5" stroke="#333F51"/>
<line x1="1464" y1="164.5" x2="-24" y2="164.5" stroke="#333F51"/>
<line x1="1464" y1="188.5" x2="-24" y2="188.5" stroke="#333F51"/>
<line x1="1464" y1="212.5" x2="-24" y2="212.5" stroke="#333F51"/>
<line x1="1464" y1="236.5" x2="-24" y2="236.5" stroke="#333F51"/>
<line x1="1464" y1="260.5" x2="-24" y2="260.5" stroke="#333F51"/>
<line x1="1464" y1="284.5" x2="-24" y2="284.5" stroke="#333F51"/>
<line x1="1464" y1="308.5" x2="-24" y2="308.5" stroke="#333F51"/>
<line x1="1464" y1="332.5" x2="-24" y2="332.5" stroke="#333F51"/>
<line x1="1464" y1="356.5" x2="-24" y2="356.5" stroke="#333F51"/>
<line x1="1464" y1="380.5" x2="-24" y2="380.5" stroke="#333F51"/>
<line x1="1464" y1="404.5" x2="-24" y2="404.5" stroke="#333F51"/>
<line x1="1464" y1="428.5" x2="-24" y2="428.5" stroke="#333F51"/>
<line x1="1464" y1="452.5" x2="-24" y2="452.5" stroke="#333F51"/>
<line x1="1464" y1="476.5" x2="-24" y2="476.5" stroke="#333F51"/>
<line x1="1464" y1="500.5" x2="-24" y2="500.5" stroke="#333F51"/>
<line x1="1464" y1="524.5" x2="-24" y2="524.5" stroke="#333F51"/>
<line x1="1464" y1="548.5" x2="-24" y2="548.5" stroke="#333F51"/>
<line x1="1464" y1="572.5" x2="-24" y2="572.5" stroke="#333F51"/>
<line x1="1464" y1="596.5" x2="-24" y2="596.5" stroke="#333F51"/>
<line x1="1464" y1="620.5" x2="-24" y2="620.5" stroke="#333F51"/>
<line x1="1464" y1="644.5" x2="-24" y2="644.5" stroke="#333F51"/>
<line x1="1464" y1="668.5" x2="-24" y2="668.5" stroke="#333F51"/>
<line x1="1464" y1="692.5" x2="-24" y2="692.5" stroke="#333F51"/>
<line x1="1464" y1="716.5" x2="-24" y2="716.5" stroke="#333F51"/>
<line x1="1464" y1="740.5" x2="-24" y2="740.5" stroke="#333F51"/>
<line x1="1464" y1="764.5" x2="-24" y2="764.5" stroke="#333F51"/>
<line x1="24.5" y1="68" x2="24.5" y2="788" stroke="#333F51"/>
<line x1="24.5" y1="68" x2="24.5" y2="788" stroke="#333F51"/>
<line x1="48.5" y1="68" x2="48.5" y2="788" stroke="#333F51"/>
<line x1="72.5" y1="68" x2="72.5" y2="788" stroke="#333F51"/>
<line x1="96.5" y1="68" x2="96.5" y2="788" stroke="#333F51"/>
<line x1="120.5" y1="68" x2="120.5" y2="788" stroke="#333F51"/>
<line x1="144.5" y1="68" x2="144.5" y2="788" stroke="#333F51"/>
<line x1="168.5" y1="68" x2="168.5" y2="788" stroke="#333F51"/>
<line x1="192.5" y1="68" x2="192.5" y2="788" stroke="#333F51"/>
<line x1="216.5" y1="68" x2="216.5" y2="788" stroke="#333F51"/>
<line x1="240.5" y1="68" x2="240.5" y2="788" stroke="#333F51"/>
<line x1="264.5" y1="68" x2="264.5" y2="788" stroke="#333F51"/>
<line x1="288.5" y1="68" x2="288.5" y2="788" stroke="#333F51"/>
<line x1="312.5" y1="68" x2="312.5" y2="788" stroke="#333F51"/>
<line x1="336.5" y1="68" x2="336.5" y2="788" stroke="#333F51"/>
<line x1="360.5" y1="68" x2="360.5" y2="788" stroke="#333F51"/>
<line x1="384.5" y1="68" x2="384.5" y2="788" stroke="#333F51"/>
<line x1="408.5" y1="68" x2="408.5" y2="788" stroke="#333F51"/>
<line x1="432.5" y1="68" x2="432.5" y2="788" stroke="#333F51"/>
<line x1="456.5" y1="68" x2="456.5" y2="788" stroke="#333F51"/>
<line x1="480.5" y1="68" x2="480.5" y2="788" stroke="#333F51"/>
<line x1="504.5" y1="68" x2="504.5" y2="788" stroke="#333F51"/>
<line x1="528.5" y1="68" x2="528.5" y2="788" stroke="#333F51"/>
<line x1="552.5" y1="68" x2="552.5" y2="788" stroke="#333F51"/>
<line x1="576.5" y1="68" x2="576.5" y2="788" stroke="#333F51"/>
<line x1="600.5" y1="68" x2="600.5" y2="788" stroke="#333F51"/>
<line x1="624.5" y1="68" x2="624.5" y2="788" stroke="#333F51"/>
<line x1="648.5" y1="68" x2="648.5" y2="788" stroke="#333F51"/>
<line x1="672.5" y1="68" x2="672.5" y2="788" stroke="#333F51"/>
<line x1="696.5" y1="68" x2="696.5" y2="788" stroke="#333F51"/>
<line x1="720.5" y1="68" x2="720.5" y2="788" stroke="#333F51"/>
<line x1="744.5" y1="68" x2="744.5" y2="788" stroke="#333F51"/>
<line x1="768.5" y1="68" x2="768.5" y2="788" stroke="#333F51"/>
<line x1="792.5" y1="68" x2="792.5" y2="788" stroke="#333F51"/>
<line x1="816.5" y1="68" x2="816.5" y2="788" stroke="#333F51"/>
<line x1="840.5" y1="68" x2="840.5" y2="788" stroke="#333F51"/>
<line x1="864.5" y1="68" x2="864.5" y2="788" stroke="#333F51"/>
<line x1="888.5" y1="68" x2="888.5" y2="788" stroke="#333F51"/>
<line x1="912.5" y1="68" x2="912.5" y2="788" stroke="#333F51"/>
<line x1="936.5" y1="68" x2="936.5" y2="788" stroke="#333F51"/>
<line x1="960.5" y1="68" x2="960.5" y2="788" stroke="#333F51"/>
<line x1="984.5" y1="68" x2="984.5" y2="788" stroke="#333F51"/>
<line x1="1008.5" y1="68" x2="1008.5" y2="788" stroke="#333F51"/>
<line x1="1032.5" y1="68" x2="1032.5" y2="788" stroke="#333F51"/>
<line x1="1056.5" y1="68" x2="1056.5" y2="788" stroke="#333F51"/>
<line x1="1080.5" y1="68" x2="1080.5" y2="788" stroke="#333F51"/>
<line x1="1104.5" y1="68" x2="1104.5" y2="788" stroke="#333F51"/>
<line x1="1128.5" y1="68" x2="1128.5" y2="788" stroke="#333F51"/>
<line x1="1152.5" y1="68" x2="1152.5" y2="788" stroke="#333F51"/>
<line x1="1176.5" y1="68" x2="1176.5" y2="788" stroke="#333F51"/>
<line x1="1200.5" y1="68" x2="1200.5" y2="788" stroke="#333F51"/>
<line x1="1224.5" y1="68" x2="1224.5" y2="788" stroke="#333F51"/>
<line x1="1248.5" y1="68" x2="1248.5" y2="788" stroke="#333F51"/>
<line x1="1272.5" y1="68" x2="1272.5" y2="788" stroke="#333F51"/>
<line x1="1296.5" y1="68" x2="1296.5" y2="788" stroke="#333F51"/>
<line x1="1320.5" y1="68" x2="1320.5" y2="788" stroke="#333F51"/>
<line x1="1344.5" y1="68" x2="1344.5" y2="788" stroke="#333F51"/>
<line x1="1368.5" y1="68" x2="1368.5" y2="788" stroke="#333F51"/>
<line x1="1392.5" y1="68" x2="1392.5" y2="788" stroke="#333F51"/>
<line x1="1416.5" y1="68" x2="1416.5" y2="788" stroke="#333F51"/>
</g>
<rect y="116" width="1440" height="932" fill="url(#paint0_radial_2454_15771)"/>
</g>
<path d="M0 64.5909H349.922C606.664 64.5909 859.771 -7.62939e-06 1080 -7.62939e-06C1300.23 -7.62939e-06 1440 64.5909 1440 64.5909V116H0V64.5909Z" fill="#2A3342"/>
<path d="M1440 1099.41H1090.08C833.336 1099.41 580.229 1164 360 1164C139.771 1164 0 1099.41 0 1099.41V1048H1440V1099.41Z" fill="#2A3342"/>
<defs>
<radialGradient id="paint0_radial_2454_15771" cx="0" cy="0" r="1" gradientUnits="userSpaceOnUse" gradientTransform="translate(720 582) rotate(90) scale(466 720)">
<stop stop-color="#2A3342" stop-opacity="0"/>
<stop offset="1" stop-color="#2A3342"/>
</radialGradient>
<clipPath id="clip0_2454_15771">
<rect width="1440" height="932" fill="white" transform="translate(0 116)"/>
</clipPath>
</defs>
</svg>
